PathFileType	4	(X/Y/Z)	G:\Shared drives\HPL_Drive\Nord Sprinting Study\Kristen_Nord_test\Trimmed_Nord000003.trc
DataRate	CameraRate	NumFrames	NumMarkers	Units	OrigDataRate	OrigDataStartFrame	OrigNumFrames
200.00	200.00	      4	52	mm	200.00	399	      1592
Frame#	Time	C7			R_Shoulder			L_Shoulder			Sternum			R_humerus			R_elbow_med			R_elbow_lat			R_forearm			R_wrist_radius			R_wrist_ulna			L_humerus			L_elbow_med			L_elbow_lat			L_forearm			L_wrist_radius			L_wrist_ulna			r.ASIS			r.PSIS			r_IC			L.ASIS			L.PSIS			l_IC			r_thigh1			r_thigh2			r_thigh3			r_thigh4			r_thigh5			r_knee			r_mknee			r_shank_antsup			r_sh2			r_sh3			r_sh4			r_ankle			r_mankle			r_calc			r_5meta			r_toe			L_thigh1			L_thigh2			L_thigh3			L_thigh4			L_knee			L_mknee			L_shank_antsup			L_sh2			L_sh3			L_ankle			L_mankle			L_calc			L_5meta			L_toe			
		X1	Y1	Z1	X2	Y2	Z2	X3	Y3	Z3	X4	Y4	Z4	X5	Y5	Z5	X6	Y6	Z6	X7	Y7	Z7	X8	Y8	Z8	X9	Y9	Z9	X10	Y10	Z10	X11	Y11	Z11	X12	Y12	Z12	X13	Y13	Z13	X14	Y14	Z14	X15	Y15	Z15	X16	Y16	Z16	X17	Y17	Z17	X18	Y18	Z18	X19	Y19	Z19	X20	Y20	Z20	X21	Y21	Z21	X22	Y22	Z22	X23	Y23	Z23	X24	Y24	Z24	X25	Y25	Z25	X26	Y26	Z26	X27	Y27	Z27	X28	Y28	Z28	X29	Y29	Z29	X30	Y30	Z30	X31	Y31	Z31	X32	Y32	Z32	X33	Y33	Z33	X34	Y34	Z34	X35	Y35	Z35	X36	Y36	Z36	X37	Y37	Z37	X38	Y38	Z38	X39	Y39	Z39	X40	Y40	Z40	X41	Y41	Z41	X42	Y42	Z42	X43	Y43	Z43	X44	Y44	Z44	X45	Y45	Z45	X46	Y46	Z46	X47	Y47	Z47	X48	Y48	Z48	X49	Y49	Z49	X50	Y50	Z50	X51	Y51	Z51	X52	Y52	Z52	

399	1.990	1171.46680	847.91473	1101.36438	1302.94421	885.08643	1071.24817	1034.68542	885.52472	1068.42102	1171.30835	920.55670	978.53564	1456.82031	786.60577	1071.36108	1558.66858	690.02917	1000.85284	1550.55627	684.75214	1080.01843	1605.99927	801.72638	1105.35095	1625.81226	916.04419	1093.47070	1667.13745	896.89691	1112.70081	852.53864	786.83344	1053.28516	764.46997	724.88361	960.72083	760.66675	703.14001	1035.82361	732.89276	845.68799	1077.92615	685.32611	930.82666	1081.09473	740.05450	941.48425	1086.32117	1307.49109	584.03107	673.94086	1257.70959	501.38556	846.96039	1335.39526	602.94623	780.27332	1073.88562	572.60321	671.22693	1141.86157	495.92422	839.47797	1046.64209	590.48260	761.87280	1378.15161	470.25027	495.71588	1378.56689	424.66220	389.41873	1391.53345	370.62451	382.91580	1389.91138	372.27899	540.14709	1375.15112	328.34869	430.70074	1381.11450	348.33508	307.99713	1255.77881	331.74002	319.48181	1397.96667	219.57970	315.02011	1380.01904	100.33241	326.28793	1396.23096	224.75487	391.38586	1379.05676	111.43501	408.28528	1360.26111	-64.23944	384.51477	1283.19043	-53.60032	354.96478	1300.88574	-79.39365	444.54495	1370.04761	-156.67714	299.70438	1337.54773	-136.67303	242.99782	1010.47369	462.79218	489.53824	1012.19904	406.70435	360.90369	1004.92755	354.80234	540.82947	1015.33636	302.81064	414.17258	1002.28015	318.61502	324.88162	1129.26331	317.48267	305.84024	987.99176	207.48555	320.64447	1002.09296	221.40771	410.11118	1017.54120	100.35741	416.35458	1030.66638	-80.94769	400.34613	1095.65869	-61.83485	338.70422	1086.17456	-74.78615	441.60648	1025.00818	-192.00471	310.33423	1058.48657	-177.09453	247.55951	
400	1.995	1171.38171	849.11035	1100.45667	1302.82397	886.11725	1070.37976	1034.60571	886.67151	1067.46204	1171.24683	921.45679	977.57178	1456.63440	787.55127	1070.64075	1558.35461	690.68134	1000.21002	1550.26392	685.39233	1079.57837	1605.92334	802.56921	1104.64893	1625.79065	916.74420	1092.61890	1667.15063	897.67975	1111.84106	852.44330	787.97284	1052.55725	764.34686	725.81805	960.17590	760.54797	704.22485	1035.31189	732.86682	846.84814	1077.07727	685.32849	932.04297	1080.09912	740.02551	942.68469	1085.27942	1307.44543	584.41705	673.69794	1257.50647	501.99051	846.82373	1335.27271	603.42090	780.00256	1073.84363	572.93567	670.97443	1142.27820	496.41818	840.10602	1046.49817	591.03900	761.53210	1378.10876	470.41324	495.61935	1378.53247	424.75803	389.38068	1391.49658	370.75070	382.94171	1389.84216	372.49789	540.13916	1375.44177	329.17810	430.79141	1381.06958	348.33185	307.98660	1255.74536	331.79318	319.47049	1397.69336	219.73006	315.24741	1379.94971	100.32923	326.33646	1396.12024	224.69029	391.46249	1378.91882	111.42945	408.34879	1360.25696	-64.30254	384.55988	1283.05591	-53.61535	355.06296	1300.73865	-79.37888	444.53949	1369.91370	-156.70042	299.71179	1338.32593	-136.68195	243.54181	1010.44067	462.95837	489.33154	1012.25110	406.78412	360.77774	1004.98523	355.74887	541.49408	1015.28845	302.91934	414.18158	1001.72504	318.62659	325.13754	1129.24280	317.54156	305.80875	987.92194	207.40350	320.66248	1002.49628	221.69717	410.30414	1017.65552	100.47762	416.42905	1030.58667	-80.81000	400.29916	1095.60266	-61.84945	338.69437	1086.09253	-74.80572	441.66620	1024.95105	-192.00136	310.31363	1058.42383	-177.09941	247.61206	
401	2.000	1171.19983	850.20007	1099.67419	1302.71216	887.17322	1069.42688	1034.51855	887.77386	1066.58362	1171.20398	922.36456	976.58319	1456.52722	788.45367	1069.90564	1558.13391	691.31976	999.64948	1550.13220	686.41058	1078.96375	1605.79102	803.39032	1103.95496	1625.78430	917.50812	1091.71155	1666.42969	898.34198	1111.12134	852.29272	789.06488	1051.82141	764.28687	726.77899	959.61743	760.49908	705.33862	1034.75916	732.79602	848.02344	1076.29102	685.32324	933.19482	1079.18323	740.06012	943.85205	1084.30652	1307.33960	584.82275	673.41577	1257.38525	502.60791	846.63525	1335.12732	603.94946	779.67529	1073.78528	573.36371	670.59033	1142.10852	497.09579	839.89526	1046.42004	591.63422	761.13629	1377.71558	470.99460	495.38403	1378.44519	424.88638	389.34424	1391.41248	370.78510	382.93396	1389.73364	372.73035	540.14423	1375.35779	329.26819	430.85284	1381.05225	348.33868	308.03104	1255.73865	331.84424	319.45795	1397.12463	219.42583	314.72760	1379.91907	100.32166	326.38162	1396.08130	224.69852	391.48785	1379.36169	111.10904	409.00043	1360.20886	-64.24746	384.58405	1283.00024	-53.58450	354.98218	1300.62756	-79.38847	444.51080	1369.85645	-156.68785	299.70929	1337.39844	-136.69583	243.02249	1010.42139	463.23553	489.14124	1012.26917	406.86624	360.63785	1004.85504	355.88208	541.40564	1015.21301	303.06659	414.16913	1002.25708	318.63626	324.84805	1129.43176	316.93503	306.03333	987.97046	207.42992	320.67310	1002.12561	221.62653	410.26111	1017.93945	100.74146	416.22836	1030.56812	-80.95456	400.29025	1095.57507	-61.87320	338.71478	1086.05530	-74.81853	441.66400	1024.94604	-192.02574	310.33585	1058.43591	-177.10988	247.56297	
402	2.005	1170.75598	852.28198	1097.23291	1302.68323	888.11761	1068.59753	1034.43555	888.93689	1065.63159	1171.15942	923.26605	975.67651	1456.40906	789.32233	1069.24548	1558.01624	692.03192	999.38184	1549.91040	687.21985	1078.50513	1605.67712	804.15845	1103.29370	1625.74158	918.29095	1090.87793	1667.16931	899.12695	1110.19482	852.95721	790.21356	1051.25586	764.17957	727.61755	959.03070	760.41260	706.37903	1034.24292	732.76569	849.20508	1075.47485	685.34491	934.36926	1078.21826	739.99554	945.01459	1083.33875	1307.23804	585.11829	673.08978	1257.25305	503.28354	846.39502	1335.42310	604.39172	779.47632	1073.65198	573.82068	670.38928	1141.97876	497.73224	839.74152	1046.33826	592.19965	760.72748	1378.02148	470.79718	495.44073	1378.43835	424.99118	389.31009	1391.37292	370.90387	382.91870	1389.65759	372.93250	540.14240	1375.14648	329.16986	431.07858	1380.99182	348.33417	308.11526	1255.70667	331.87958	319.44894	1397.08936	219.42245	314.78598	1379.89648	100.33590	326.40024	1395.94861	224.74594	391.57123	1378.77014	111.44526	408.45087	1360.13501	-64.29160	384.59970	1282.94519	-53.57485	354.91949	1300.52856	-79.39037	444.50803	1369.81519	-156.67738	299.69312	1337.36438	-136.69487	242.97379	1010.38336	463.47409	488.91891	1012.24963	406.95816	360.51346	1004.82257	356.12485	541.34552	1015.13098	303.16861	414.16840	1001.70142	318.66025	325.05289	1129.41626	316.89218	306.03683	987.97461	207.51521	320.46756	1002.40387	221.69289	410.29962	1017.89215	100.72712	416.16730	1030.55542	-80.78282	400.29895	1095.55017	-61.86100	338.72937	1086.06458	-74.80824	441.64777	1024.95129	-192.00237	310.33298	1058.49011	-177.11600	247.66191	
